<?xml version="1.0" standalone="no"?>
<!DOCTYPE svg PUBLIC "-//W3C//DTD SVG 20010904//EN"
 "http://www.w3.org/TR/2001/REC-SVG-20010904/DTD/svg10.dtd">
<svg version="1.0" xmlns="http://www.w3.org/2000/svg"
 width="500.000000pt" height="500.000000pt" viewBox="0 0 500.000000 500.000000"
 preserveAspectRatio="xMidYMid meet">

<g transform="translate(0.000000,500.000000) scale(0.100000,-0.100000)"
fill="#000000" stroke="none">
<path d="M2593 4033 c9 -2 25 -2 35 0 9 3 1 5 -18 5 -19 0 -27 -2 -17 -5z"/>
<path d="M2765 4005 c55 -13 129 -34 165 -48 72 -27 190 -84 190 -92 0 -3 -23
6 -51 21 -142 72 -384 124 -572 124 -346 0 -665 -130 -908 -370 -73 -73 -76
-77 -15 -19 45 41 106 94 136 116 66 48 239 148 245 141 3 -2 -14 -15 -38 -28
-133 -74 -248 -167 -338 -273 -48 -56 -45 -54 36 25 50 48 111 104 138 123
124 94 300 178 464 223 90 24 113 26 288 26 176 0 197 -2 290 -28 252 -69 496
-221 649 -405 32 -39 61 -71 63 -71 12 0 -70 95 -156 180 -53 52 -76 79 -51
60 89 -70 163 -145 233 -239 160 -213 224 -402 234 -688 l6 -153 -36 0 c-27 0
-41 -7 -61 -31 -14 -17 -26 -41 -26 -55 0 -31 41 -58 75 -50 23 6 24 4 18 -26
-3 -18 -16 -67 -29 -108 -13 -41 -22 -76 -20 -78 5 -4 40 103 56 168 6 25 13
52 16 60 3 8 8 38 10 65 2 28 8 91 13 140 l10 90 -4 -125 c-4 -167 -23 -284
-66 -408 -10 -30 -17 -57 -15 -60 8 -7 64 182 81 273 22 117 23 313 1 435 -95
545 -510 986 -1029 1096 -110 23 -111 15 -2 -11z m-765 -115 c-8 -5 -19 -10
-25 -10 -5 0 -3 5 5 10 8 5 20 10 25 10 6 0 3 -5 -5 -10z m1740 -1289 c0 -6
-10 -17 -22 -26 -28 -19 -39 0 -12 20 22 17 34 19 34 6z m9 -77 c-14 -17 -54
-15 -54 4 0 7 14 20 30 31 29 17 30 17 33 -1 2 -11 -2 -26 -9 -34z"/>
<path d="M1469 3513 c-13 -16 -12 -17 4 -4 16 13 21 21 13 21 -2 0 -10 -8 -17
-17z"/>
<path d="M1509 3493 c-13 -16 -12 -17 4 -4 16 13 21 21 13 21 -2 0 -10 -8 -17
-17z"/>
<path d="M3560 3380 c6 -11 13 -20 16 -20 2 0 0 9 -6 20 -6 11 -13 20 -16 20
-2 0 0 -9 6 -20z"/>
<path d="M1354 3279 c-14 -28 -24 -53 -22 -55 2 -2 16 21 31 51 15 30 25 55
22 55 -3 0 -16 -23 -31 -51z"/>
<path d="M1277 3218 c-78 -197 -107 -452 -76 -661 42 -282 186 -564 393 -771
118 -118 217 -188 361 -257 98 -47 308 -110 359 -108 11 0 -16 9 -62 20 -45
10 -111 28 -145 40 -70 23 -247 105 -247 114 0 3 26 -8 58 -24 85 -43 190 -78
305 -103 152 -32 411 -32 557 0 254 57 472 175 647 352 77 76 184 210 170 210
-3 0 -21 -22 -41 -50 -99 -138 -275 -289 -436 -374 -94 -49 -138 -64 -54 -18
134 75 278 190 369 298 37 44 27 37 -41 -31 -126 -126 -209 -186 -359 -260
-228 -112 -427 -148 -664 -120 -300 34 -562 167 -780 394 -58 61 -60 62 -21
13 38 -47 133 -136 215 -201 l30 -23 -30 17 c-55 33 -149 112 -221 187 -149
155 -243 323 -294 525 -24 94 -24 99 -5 83 52 -43 170 -24 223 36 17 20 32 41
32 45 0 5 -23 -6 -52 -24 -62 -39 -131 -44 -154 -13 -32 44 -2 150 56 199 35
30 70 34 103 12 26 -17 51 -6 45 21 -6 33 -51 47 -113 34 -63 -13 -106 -45
-147 -109 l-28 -45 0 91 c0 109 30 291 64 388 13 39 27 79 31 90 6 16 5 17 -4
5 -22 -29 -81 -234 -91 -314 -28 -226 -29 -229 -25 -96 5 159 32 296 84 429
11 30 19 56 17 58 -2 2 -15 -24 -29 -59z m-60 -625 c-3 -10 -5 -2 -5 17 0 19
2 27 5 18 2 -10 2 -26 0 -35z"/>
<path d="M1577 2651 c-44 -150 -52 -190 -43 -225 8 -31 43 -53 59 -37 8 8 5
11 -11 11 -31 0 -29 18 23 154 57 148 65 194 40 213 -11 7 -21 13 -24 13 -3 0
-23 -58 -44 -129z"/>
<path d="M2005 2768 c-3 -7 -10 -31 -17 -53 -11 -35 -17 -40 -45 -43 -29 -3
-33 0 -33 21 0 13 -10 33 -23 45 -27 26 -37 28 -37 7 0 -8 -5 -26 -12 -40 -11
-25 -15 -26 -62 -20 l-51 6 30 -20 c17 -12 36 -21 44 -21 9 0 11 -7 7 -22 -4
-13 -10 -50 -13 -83 -5 -55 -3 -63 22 -93 32 -38 50 -40 109 -9 34 17 50 33
67 70 22 46 69 97 90 97 5 0 9 -28 7 -64 -1 -46 3 -70 15 -90 21 -31 37 -33
68 -8 l22 19 -23 -1 c-21 -1 -23 3 -24 72 -1 65 -4 76 -25 93 -30 24 -31 24
-75 -6 -34 -23 -37 -24 -31 -6 13 41 32 146 28 154 -7 12 -33 8 -38 -5z m-35
-130 c0 -2 -9 -36 -19 -77 -11 -40 -17 -79 -15 -85 6 -15 -37 -36 -71 -36 -22
0 -25 4 -25 40 0 22 11 64 24 94 21 48 28 55 58 59 18 2 36 5 41 5 4 1 7 1 7
0z"/>
<path d="M3191 2718 l-13 -40 -51 6 c-48 6 -51 5 -32 -9 11 -9 30 -19 43 -22
19 -4 22 -10 17 -27 -29 -91 -10 -189 40 -202 27 -7 85 12 85 28 0 5 -9 4 -19
-2 -11 -5 -31 -10 -45 -10 -39 0 -42 32 -11 116 25 68 29 74 55 74 40 0 89 20
100 40 9 16 6 17 -36 8 -49 -11 -78 -5 -71 15 6 17 -10 44 -32 56 -16 9 -20 4
-30 -31z"/>
<path d="M2321 2603 c-30 -105 -31 -112 -24 -128 10 -28 30 -15 53 36 23 48
70 99 91 99 5 0 9 -28 7 -64 -1 -46 3 -70 15 -90 21 -31 36 -33 70 -6 16 13
28 16 32 10 13 -21 45 -8 80 33 36 42 36 42 30 12 -18 -84 -29 -116 -51 -136
-23 -22 -25 -22 -59 -6 -37 18 -49 5 -17 -19 29 -22 86 -17 111 10 36 38 61
118 61 196 0 83 -10 92 -70 65 -54 -24 -92 -67 -99 -112 -5 -28 -11 -38 -25
-38 -17 0 -19 9 -20 73 -1 65 -4 76 -25 93 -29 24 -31 24 -74 -5 l-35 -24 5
39 c5 34 3 39 -15 39 -16 0 -24 -14 -41 -77z m330 -62 c-13 -24 -71 -67 -71
-52 0 23 23 58 48 74 30 18 39 9 23 -22z"/>
<path d="M2956 2644 c-26 -26 -19 -44 40 -99 49 -44 54 -53 40 -64 -19 -16
-66 -7 -101 20 -25 20 -25 20 -25 1 0 -11 14 -32 31 -46 60 -51 159 -26 159
40 0 18 -14 39 -46 69 -58 52 -53 70 17 61 49 -7 76 7 48 25 -25 16 -146 11
-163 -7z"/>
<path d="M2246 2634 c-9 -22 -8 -24 9 -24 8 0 15 9 15 20 0 24 -15 27 -24 4z"/>
<path d="M3376 2641 c-61 -9 -86 -36 -86 -96 0 -50 17 -69 54 -59 43 11 69 52
62 100 -5 39 -3 42 21 49 44 11 48 -7 19 -87 -29 -81 -32 -108 -14 -126 22
-22 34 -12 47 41 24 98 74 149 132 134 33 -9 16 17 -18 27 -23 6 -40 4 -64 -8
-40 -20 -39 -20 -39 3 0 31 -20 35 -114 22z m2 -59 c4 -37 -13 -72 -33 -72
-10 0 -15 11 -15 36 0 69 42 101 48 36z"/>
<path d="M1656 2621 c-26 -28 -38 -84 -26 -116 9 -24 14 -27 43 -21 51 10 72
39 71 96 0 37 4 50 15 53 9 3 -7 5 -35 6 -38 1 -55 -4 -68 -18z m60 -26 c8
-34 -14 -87 -35 -83 -12 3 -15 13 -13 43 5 62 36 88 48 40z"/>
<path d="M2215 2561 c-17 -38 -14 -81 6 -81 6 0 7 4 4 10 -3 5 3 27 14 49 17
32 18 41 7 50 -10 9 -17 2 -31 -28z"/>
<path d="M2793 2581 c-48 -8 -58 -15 -48 -30 10 -18 132 -7 152 13 17 17 -45
27 -104 17z"/>
<path d="M2259 2493 c-13 -16 -12 -17 4 -4 9 7 17 15 17 17 0 8 -8 3 -21 -13z"/>
<path d="M3676 2255 c-9 -26 -7 -32 5 -12 6 10 9 21 6 23 -2 3 -7 -2 -11 -11z"/>
<path d="M3685 2161 c-3 -12 -11 -19 -16 -16 -5 3 -6 -2 -2 -11 5 -14 8 -12
20 11 8 15 12 29 10 32 -3 2 -8 -5 -12 -16z"/>
<path d="M3489 1963 c-13 -16 -12 -17 4 -4 16 13 21 21 13 21 -2 0 -10 -8 -17
-17z"/>
<path d="M1500 1966 c0 -2 8 -10 18 -17 15 -13 16 -12 3 4 -13 16 -21 21 -21
13z"/>
<path d="M2363 1413 c15 -2 37 -2 50 0 12 2 0 4 -28 4 -27 0 -38 -2 -22 -4z"/>
</g>
</svg>
